<svg width="157" height="47" viewBox="0 0 157 47" fill="none" xmlns="http://www.w3.org/2000/svg">
<path d="M0 3.88804C0 1.74073 1.6736 0 3.7381 0H153.262C155.326 0 157 1.74073 157 3.88804V42.7684C157 44.9157 155.326 46.6564 153.262 46.6564H3.7381C1.67361 46.6564 0 44.9157 0 42.7684V3.88804Z" fill="#A60321"/>
<path d="M51.4624 15.5521V7.27063H54.165C55.0098 7.27063 55.7126 7.45725 56.2733 7.83051C56.8415 8.19598 57.2676 8.69365 57.5517 9.32351C57.8358 9.9456 57.9779 10.6377 57.9779 11.3997C57.9779 12.2395 57.8209 12.9705 57.5069 13.5926C57.2003 14.2147 56.7592 14.6968 56.1836 15.0389C55.6154 15.3811 54.9425 15.5521 54.165 15.5521H51.4624ZM57.1929 11.3997C57.1929 10.7388 57.0732 10.1517 56.834 9.63844C56.6022 9.12522 56.2621 8.72476 55.8135 8.43704C55.3649 8.14155 54.8154 7.9938 54.165 7.9938H52.2474V14.829H54.165C54.8229 14.829 55.3761 14.6773 55.8247 14.3741C56.2733 14.0708 56.6135 13.6626 56.8452 13.1493C57.077 12.6283 57.1929 12.0451 57.1929 11.3997Z" fill="#FCF005"/>
<path d="M61.8114 15.6688C61.3927 15.6688 61.004 15.5871 60.6451 15.4238C60.2937 15.2528 59.9872 15.0234 59.7255 14.7357C59.4713 14.4402 59.2732 14.1058 59.1312 13.7325C58.9891 13.3515 58.9181 12.9511 58.9181 12.5311C58.9181 12.0957 58.9891 11.6913 59.1312 11.3181C59.2732 10.937 59.4751 10.6027 59.7368 10.315C59.9984 10.0195 60.3049 9.79008 60.6563 9.62678C61.0152 9.4557 61.4039 9.37017 61.8226 9.37017C62.2413 9.37017 62.6263 9.4557 62.9777 9.62678C63.3291 9.79008 63.6356 10.0195 63.8972 10.315C64.1589 10.6027 64.3608 10.937 64.5028 11.3181C64.6449 11.6913 64.7159 12.0957 64.7159 12.5311C64.7159 12.9511 64.6449 13.3515 64.5028 13.7325C64.3608 14.1058 64.1589 14.4402 63.8972 14.7357C63.6431 15.0234 63.3365 15.2528 62.9777 15.4238C62.6263 15.5871 62.2375 15.6688 61.8114 15.6688ZM59.6919 12.5428C59.6919 12.9938 59.7853 13.406 59.9722 13.7792C60.1666 14.1447 60.4246 14.4363 60.746 14.654C61.0675 14.864 61.4226 14.9689 61.8114 14.9689C62.2002 14.9689 62.5553 14.8601 62.8768 14.6423C63.1982 14.4246 63.4562 14.1291 63.6505 13.7559C63.8449 13.3748 63.9421 12.9627 63.9421 12.5195C63.9421 12.0685 63.8449 11.6563 63.6505 11.2831C63.4562 10.9098 63.1982 10.6143 62.8768 10.3966C62.5553 10.1789 62.2002 10.07 61.8114 10.07C61.4226 10.07 61.0675 10.1828 60.746 10.4083C60.432 10.6338 60.1778 10.9332 59.9835 11.3064C59.7891 11.6719 59.6919 12.084 59.6919 12.5428Z" fill="#FCF005"/>
<path d="M73.1507 9.47514H73.9021L71.3901 15.5521H70.7284L69.5061 12.5311L68.2949 15.5521H67.6333L65.1213 9.47514H65.8614L67.9921 14.7357L69.0687 11.9946L68.0818 9.48681H68.7659L69.5061 11.458L70.2574 9.48681H70.9303L69.9546 11.9946L71.0312 14.7357L73.1507 9.47514Z" fill="#FCF005"/>
<path d="M79.8285 15.5521H79.066V12.1579C79.066 11.4425 78.965 10.9215 78.7632 10.5949C78.5613 10.2605 78.2436 10.0933 77.81 10.0933C77.5109 10.0933 77.2156 10.1711 76.924 10.3266C76.6325 10.4744 76.3745 10.6804 76.1503 10.9448C75.9334 11.2014 75.7765 11.4969 75.6793 11.8313V15.5521H74.9167V9.47514H75.612V10.8515C75.769 10.556 75.9746 10.2994 76.2288 10.0817C76.4829 9.85617 76.7708 9.68121 77.0923 9.55679C77.4137 9.43238 77.7464 9.37017 78.0903 9.37017C78.4118 9.37017 78.6847 9.43238 78.909 9.55679C79.1333 9.68121 79.3127 9.86006 79.4473 10.0933C79.5818 10.3188 79.679 10.5949 79.7388 10.9215C79.7986 11.2403 79.8285 11.598 79.8285 11.9946V15.5521Z" fill="#FCF005"/>
<path d="M81.4883 7.03735H82.2509V14.1758C82.2509 14.479 82.3032 14.6773 82.4079 14.7707C82.5126 14.864 82.6397 14.9106 82.7892 14.9106C82.9238 14.9106 83.0583 14.8951 83.1929 14.864C83.3275 14.8329 83.4434 14.8018 83.5406 14.7707L83.6751 15.4122C83.5331 15.4744 83.3574 15.5249 83.1481 15.5638C82.9462 15.6027 82.7705 15.6221 82.621 15.6221C82.2771 15.6221 82.0005 15.5172 81.7911 15.3072C81.5893 15.0972 81.4883 14.8095 81.4883 14.4441V7.03735Z" fill="#FCF005"/>
<path d="M86.9997 15.6688C86.5811 15.6688 86.1923 15.5871 85.8334 15.4238C85.4821 15.2528 85.1755 15.0234 84.9139 14.7357C84.6597 14.4402 84.4616 14.1058 84.3195 13.7325C84.1775 13.3515 84.1064 12.9511 84.1064 12.5311C84.1064 12.0957 84.1775 11.6913 84.3195 11.3181C84.4616 10.937 84.6634 10.6027 84.9251 10.315C85.1868 10.0195 85.4933 9.79008 85.8447 9.62678C86.2035 9.4557 86.5923 9.37017 87.0109 9.37017C87.4296 9.37017 87.8146 9.4557 88.166 9.62678C88.5174 9.79008 88.8239 10.0195 89.0856 10.315C89.3473 10.6027 89.5491 10.937 89.6912 11.3181C89.8332 11.6913 89.9042 12.0957 89.9042 12.5311C89.9042 12.9511 89.8332 13.3515 89.6912 13.7325C89.5491 14.1058 89.3473 14.4402 89.0856 14.7357C88.8314 15.0234 88.5249 15.2528 88.166 15.4238C87.8146 15.5871 87.4259 15.6688 86.9997 15.6688ZM84.8802 12.5428C84.8802 12.9938 84.9737 13.406 85.1606 13.7792C85.355 14.1447 85.6129 14.4363 85.9344 14.654C86.2559 14.864 86.611 14.9689 86.9997 14.9689C87.3885 14.9689 87.7436 14.8601 88.0651 14.6423C88.3866 14.4246 88.6445 14.1291 88.8389 13.7559C89.0332 13.3748 89.1304 12.9627 89.1304 12.5195C89.1304 12.0685 89.0332 11.6563 88.8389 11.2831C88.6445 10.9098 88.3866 10.6143 88.0651 10.3966C87.7436 10.1789 87.3885 10.07 86.9997 10.07C86.611 10.07 86.2559 10.1828 85.9344 10.4083C85.6204 10.6338 85.3662 10.9332 85.1718 11.3064C84.9774 11.6719 84.8802 12.084 84.8802 12.5428Z" fill="#FCF005"/>
<path d="M90.7086 13.8025C90.7086 13.4215 90.8133 13.0949 91.0226 12.8227C91.2319 12.5428 91.5198 12.329 91.8861 12.1812C92.2599 12.0257 92.6898 11.9479 93.1757 11.9479C93.4598 11.9479 93.7551 11.9713 94.0617 12.0179C94.3682 12.0646 94.6411 12.1346 94.8803 12.2279V11.7147C94.8803 11.2014 94.7345 10.7932 94.4429 10.4899C94.1514 10.1867 93.7477 10.035 93.2318 10.035C92.9178 10.035 92.6075 10.0972 92.301 10.2216C92.002 10.3383 91.688 10.5133 91.359 10.7465L91.0674 10.1867C91.4487 9.91449 91.8225 9.71232 92.1889 9.58012C92.5552 9.44015 92.929 9.37017 93.3103 9.37017C94.028 9.37017 94.5962 9.58401 95.0149 10.0117C95.4335 10.4394 95.6429 11.0304 95.6429 11.7846V14.5957C95.6429 14.7046 95.6653 14.7862 95.7102 14.8406C95.755 14.8873 95.826 14.9145 95.9232 14.9223V15.5521C95.841 15.5599 95.77 15.5677 95.7102 15.5755C95.6504 15.5833 95.6055 15.5833 95.5756 15.5755C95.3887 15.5677 95.2466 15.5055 95.1495 15.3888C95.0523 15.2722 94.9999 15.1478 94.9925 15.0156L94.9812 14.5724C94.7196 14.9223 94.3794 15.1944 93.9607 15.3888C93.5421 15.5755 93.1159 15.6688 92.6823 15.6688C92.3085 15.6688 91.9683 15.5871 91.6618 15.4238C91.3628 15.2528 91.1273 15.0273 90.9553 14.7473C90.7908 14.4596 90.7086 14.1447 90.7086 13.8025ZM94.6224 14.2691C94.7046 14.1602 94.7682 14.0553 94.813 13.9542C94.8579 13.8531 94.8803 13.7636 94.8803 13.6859V12.7994C94.6261 12.6983 94.3607 12.6206 94.0841 12.5661C93.8149 12.5117 93.5421 12.4845 93.2654 12.4845C92.7197 12.4845 92.2786 12.5972 91.9422 12.8227C91.6057 13.0483 91.4375 13.3554 91.4375 13.7442C91.4375 13.9697 91.4936 14.1836 91.6057 14.3857C91.7179 14.5801 91.8824 14.7434 92.0992 14.8756C92.316 15 92.5702 15.0623 92.8617 15.0623C93.2281 15.0623 93.5682 14.9884 93.8822 14.8406C94.2037 14.6929 94.4504 14.5024 94.6224 14.2691Z" fill="#FCF005"/>
<path d="M96.898 12.5311C96.898 11.9557 97.0101 11.4308 97.2344 10.9565C97.4662 10.4744 97.7839 10.0895 98.1876 9.80174C98.5914 9.51403 99.0511 9.37017 99.567 9.37017C100.053 9.37017 100.487 9.50625 100.868 9.77841C101.257 10.0428 101.559 10.3655 101.776 10.7465V7.03735H102.539V14.5957C102.539 14.7046 102.561 14.7862 102.606 14.8406C102.651 14.8873 102.718 14.9145 102.808 14.9223V15.5521C102.658 15.5755 102.543 15.5833 102.46 15.5755C102.303 15.5677 102.165 15.5016 102.045 15.3772C101.926 15.2528 101.866 15.1167 101.866 14.9689V14.3741C101.634 14.7707 101.32 15.0856 100.924 15.3189C100.528 15.5521 100.117 15.6688 99.6904 15.6688C99.2866 15.6688 98.9128 15.5833 98.5689 15.4122C98.2325 15.2411 97.9372 15.0078 97.683 14.7123C97.4363 14.4168 97.2419 14.0825 97.0999 13.7092C96.9653 13.3282 96.898 12.9355 96.898 12.5311ZM101.776 13.4643V11.5863C101.679 11.3064 101.522 11.0537 101.305 10.8282C101.088 10.5949 100.842 10.4122 100.565 10.28C100.296 10.14 100.027 10.07 99.7576 10.07C99.4436 10.07 99.1595 10.14 98.9054 10.28C98.6512 10.4122 98.4306 10.5949 98.2437 10.8282C98.0643 11.0615 97.926 11.3259 97.8288 11.6213C97.7316 11.9168 97.683 12.2201 97.683 12.5311C97.683 12.8577 97.7353 13.1688 97.84 13.4643C97.9521 13.7598 98.1091 14.0241 98.311 14.2574C98.5129 14.4829 98.7446 14.6579 99.0063 14.7823C99.268 14.9067 99.552 14.9689 99.8586 14.9689C100.053 14.9689 100.255 14.9301 100.464 14.8523C100.673 14.7745 100.872 14.6696 101.059 14.5374C101.253 14.3974 101.414 14.2341 101.541 14.0475C101.668 13.8609 101.746 13.6664 101.776 13.4643Z" fill="#FCF005"/>
<path d="M109.614 15.6688C109.196 15.6688 108.807 15.5871 108.448 15.4238C108.097 15.2528 107.79 15.0234 107.529 14.7357C107.274 14.4402 107.076 14.1058 106.934 13.7325C106.792 13.3515 106.721 12.9511 106.721 12.5311C106.721 12.0957 106.792 11.6913 106.934 11.3181C107.076 10.937 107.278 10.6027 107.54 10.315C107.801 10.0195 108.108 9.79008 108.459 9.62678C108.818 9.4557 109.207 9.37017 109.626 9.37017C110.044 9.37017 110.429 9.4557 110.781 9.62678C111.132 9.79008 111.439 10.0195 111.7 10.315C111.962 10.6027 112.164 10.937 112.306 11.3181C112.448 11.6913 112.519 12.0957 112.519 12.5311C112.519 12.9511 112.448 13.3515 112.306 13.7325C112.164 14.1058 111.962 14.4402 111.7 14.7357C111.446 15.0234 111.14 15.2528 110.781 15.4238C110.429 15.5871 110.041 15.6688 109.614 15.6688ZM107.495 12.5428C107.495 12.9938 107.588 13.406 107.775 13.7792C107.97 14.1447 108.228 14.4363 108.549 14.654C108.871 14.864 109.226 14.9689 109.614 14.9689C110.003 14.9689 110.358 14.8601 110.68 14.6423C111.001 14.4246 111.259 14.1291 111.454 13.7559C111.648 13.3748 111.745 12.9627 111.745 12.5195C111.745 12.0685 111.648 11.6563 111.454 11.2831C111.259 10.9098 111.001 10.6143 110.68 10.3966C110.358 10.1789 110.003 10.07 109.614 10.07C109.226 10.07 108.871 10.1828 108.549 10.4083C108.235 10.6338 107.981 10.9332 107.787 11.3064C107.592 11.6719 107.495 12.084 107.495 12.5428Z" fill="#FCF005"/>
<path d="M118.706 15.5521H117.944V12.1579C117.944 11.4425 117.843 10.9215 117.641 10.5949C117.439 10.2605 117.121 10.0933 116.688 10.0933C116.389 10.0933 116.093 10.1711 115.802 10.3266C115.51 10.4744 115.252 10.6804 115.028 10.9448C114.811 11.2014 114.654 11.4969 114.557 11.8313V15.5521H113.794V9.47514H114.49V10.8515C114.647 10.556 114.852 10.2994 115.106 10.0817C115.361 9.85617 115.648 9.68121 115.97 9.55679C116.291 9.43238 116.624 9.37017 116.968 9.37017C117.289 9.37017 117.562 9.43238 117.787 9.55679C118.011 9.68121 118.19 9.86006 118.325 10.0933C118.459 10.3188 118.557 10.5949 118.616 10.9215C118.676 11.2403 118.706 11.598 118.706 11.9946V15.5521Z" fill="#FCF005"/>
<path d="M125.994 15.2605C125.934 15.2839 125.841 15.3266 125.714 15.3888C125.587 15.4511 125.434 15.5055 125.254 15.5521C125.075 15.5988 124.88 15.6221 124.671 15.6221C124.454 15.6221 124.249 15.5794 124.054 15.4938C123.867 15.4083 123.718 15.28 123.606 15.1089C123.493 14.9301 123.437 14.7123 123.437 14.4557V10.105H122.63V9.47514H123.437V7.42226H124.2V9.47514H125.546V10.105H124.2V14.2341C124.215 14.4518 124.29 14.6151 124.424 14.724C124.566 14.8329 124.727 14.8873 124.906 14.8873C125.116 14.8873 125.306 14.8523 125.478 14.7823C125.65 14.7046 125.755 14.6501 125.792 14.619L125.994 15.2605Z" fill="#FCF005"/>
<path d="M131.859 15.5521H131.096V12.1579C131.096 11.4736 130.98 10.9604 130.749 10.6182C130.517 10.2683 130.184 10.0933 129.751 10.0933C129.467 10.0933 129.182 10.1711 128.898 10.3266C128.622 10.4744 128.375 10.6804 128.158 10.9448C127.949 11.2014 127.799 11.4969 127.71 11.8313V15.5521H126.947V7.03735H127.71V10.8515C127.941 10.4005 128.263 10.0428 128.674 9.77841C129.093 9.50625 129.538 9.37017 130.009 9.37017C130.345 9.37017 130.629 9.43238 130.861 9.55679C131.1 9.68121 131.291 9.86395 131.433 10.105C131.582 10.3383 131.691 10.6143 131.758 10.9332C131.825 11.2442 131.859 11.598 131.859 11.9946V15.5521Z" fill="#FCF005"/>
<path d="M136.008 15.6688C135.59 15.6688 135.201 15.5871 134.842 15.4238C134.483 15.2528 134.173 15.0234 133.911 14.7357C133.65 14.4402 133.444 14.1019 133.294 13.7209C133.152 13.3399 133.081 12.9316 133.081 12.4962C133.081 11.9285 133.205 11.4075 133.451 10.9332C133.706 10.4588 134.053 10.0817 134.494 9.80174C134.935 9.51403 135.436 9.37017 135.997 9.37017C136.573 9.37017 137.074 9.51403 137.5 9.80174C137.933 10.0895 138.274 10.4705 138.52 10.9448C138.767 11.4114 138.89 11.9246 138.89 12.4845C138.89 12.5467 138.89 12.6089 138.89 12.6711C138.89 12.7255 138.887 12.7683 138.879 12.7994H133.878C133.915 13.2349 134.031 13.6237 134.225 13.9658C134.427 14.3002 134.685 14.5685 134.999 14.7707C135.32 14.9651 135.668 15.0623 136.042 15.0623C136.423 15.0623 136.782 14.9612 137.118 14.759C137.462 14.5568 137.702 14.2924 137.836 13.9658L138.498 14.1525C138.378 14.4402 138.195 14.7007 137.948 14.9339C137.702 15.1672 137.41 15.35 137.074 15.4822C136.745 15.6066 136.39 15.6688 136.008 15.6688ZM133.855 12.2279H138.173C138.143 11.7846 138.027 11.3958 137.825 11.0615C137.631 10.7271 137.373 10.4666 137.051 10.28C136.737 10.0856 136.39 9.98837 136.008 9.98837C135.627 9.98837 135.279 10.0856 134.965 10.28C134.651 10.4666 134.393 10.731 134.192 11.0731C133.997 11.4075 133.885 11.7924 133.855 12.2279Z" fill="#FCF005"/>
<path d="M56.3237 19.8095H58.5031L64.1775 34.9923H61.7515L60.2095 30.8652H54.5762L53.0548 34.9923H50.6082L56.3237 19.8095ZM59.7572 29.0903L57.4134 22.4398L54.9874 29.0903H59.7572Z" fill="#FCF005"/>
<path d="M71.8011 35.2062C70.9376 35.2062 70.1769 34.9923 69.519 34.5646C68.861 34.137 68.3402 33.581 67.9564 32.8967V39.5472H65.6949V23.8084H67.6891V25.8185C68.1003 25.1485 68.6349 24.6139 69.2928 24.2147C69.9507 23.8155 70.684 23.6159 71.4927 23.6159C72.2328 23.6159 72.9113 23.7728 73.5281 24.0864C74.1448 24.3858 74.6794 24.8063 75.1317 25.3481C75.584 25.8898 75.9335 26.5099 76.1802 27.2085C76.4407 27.8928 76.5709 28.6198 76.5709 29.3897C76.5709 30.4589 76.3653 31.4354 75.9541 32.3193C75.5566 33.2032 74.9946 33.9089 74.2682 34.4363C73.5555 34.9496 72.7331 35.2062 71.8011 35.2062ZM71.0609 33.1961C71.5406 33.1961 71.9724 33.0891 72.3562 32.8753C72.7536 32.6615 73.0895 32.3763 73.3636 32.0199C73.6514 31.6635 73.8707 31.2572 74.0215 30.801C74.1723 30.3448 74.2476 29.8744 74.2476 29.3897C74.2476 28.8764 74.1654 28.3917 74.0009 27.9355C73.8365 27.4793 73.5966 27.0802 73.2813 26.738C72.9798 26.3959 72.6234 26.125 72.2122 25.9254C71.8148 25.7258 71.3762 25.626 70.8964 25.626C70.6086 25.626 70.3071 25.6831 69.9918 25.7971C69.6766 25.9112 69.3819 26.068 69.1078 26.2676C68.8336 26.4672 68.5938 26.7024 68.3882 26.9733C68.1826 27.2441 68.0387 27.5292 67.9564 27.8286V30.7583C68.1483 31.2145 68.4019 31.6279 68.7171 31.9985C69.0324 32.3549 69.3956 32.6472 69.8068 32.8753C70.218 33.0891 70.636 33.1961 71.0609 33.1961Z" fill="#FCF005"/>
<path d="M84.711 35.2062C83.8475 35.2062 83.0868 34.9923 82.4289 34.5646C81.771 34.137 81.2501 33.581 80.8664 32.8967V39.5472H78.6048V23.8084H80.5991V25.8185C81.0103 25.1485 81.5448 24.6139 82.2027 24.2147C82.8606 23.8155 83.5939 23.6159 84.4026 23.6159C85.1427 23.6159 85.8212 23.7728 86.438 24.0864C87.0548 24.3858 87.5893 24.8063 88.0416 25.3481C88.4939 25.8898 88.8435 26.5099 89.0902 27.2085C89.3506 27.8928 89.4808 28.6198 89.4808 29.3897C89.4808 30.4589 89.2752 31.4354 88.864 32.3193C88.4665 33.2032 87.9046 33.9089 87.1781 34.4363C86.4654 34.9496 85.643 35.2062 84.711 35.2062ZM83.9708 33.1961C84.4506 33.1961 84.8823 33.0891 85.2661 32.8753C85.6636 32.6615 85.9994 32.3763 86.2735 32.0199C86.5613 31.6635 86.7806 31.2572 86.9314 30.801C87.0822 30.3448 87.1576 29.8744 87.1576 29.3897C87.1576 28.8764 87.0753 28.3917 86.9109 27.9355C86.7464 27.4793 86.5065 27.0802 86.1913 26.738C85.8897 26.3959 85.5334 26.125 85.1222 25.9254C84.7247 25.7258 84.2861 25.626 83.8064 25.626C83.5185 25.626 83.217 25.6831 82.9018 25.7971C82.5865 25.9112 82.2918 26.068 82.0177 26.2676C81.7436 26.4672 81.5037 26.7024 81.2981 26.9733C81.0925 27.2441 80.9486 27.5292 80.8664 27.8286V30.7583C81.0583 31.2145 81.3118 31.6279 81.6271 31.9985C81.9423 32.3549 82.3055 32.6472 82.7167 32.8753C83.1279 33.0891 83.546 33.1961 83.9708 33.1961Z" fill="#FCF005"/>
<path d="M105.517 23.3807C105.38 23.2239 105.181 23.0599 104.921 22.8889C104.661 22.7035 104.352 22.5325 103.996 22.3757C103.639 22.2188 103.256 22.0905 102.844 21.9907C102.433 21.8909 102.008 21.841 101.57 21.841C100.61 21.841 99.8976 22.0264 99.4316 22.397C98.9656 22.7677 98.7326 23.2809 98.7326 23.9367C98.7326 24.4214 98.8628 24.8063 99.1232 25.0914C99.3836 25.3623 99.7811 25.5904 100.316 25.7757C100.85 25.9611 101.522 26.1607 102.331 26.3745C103.317 26.6168 104.174 26.9091 104.9 27.2512C105.627 27.5791 106.182 28.0211 106.566 28.5771C106.95 29.1331 107.141 29.8673 107.141 30.7796C107.141 31.5495 107.004 32.2124 106.73 32.7684C106.456 33.3244 106.072 33.7806 105.579 34.137C105.085 34.4791 104.517 34.7357 103.872 34.9068C103.228 35.0636 102.536 35.142 101.796 35.142C101.07 35.142 100.343 35.0636 99.6166 34.9068C98.9039 34.75 98.2186 34.5219 97.5607 34.2225C96.9165 33.9089 96.3203 33.5311 95.772 33.0891L96.8205 31.0363C96.9987 31.2216 97.2523 31.4283 97.5813 31.6564C97.9239 31.8702 98.3145 32.077 98.7532 32.2765C99.2055 32.4761 99.692 32.6472 100.213 32.7898C100.747 32.9181 101.289 32.9822 101.837 32.9822C102.755 32.9822 103.454 32.8183 103.934 32.4904C104.428 32.1482 104.674 31.6635 104.674 31.0363C104.674 30.523 104.517 30.1167 104.201 29.8174C103.886 29.5037 103.427 29.24 102.824 29.0261C102.221 28.8123 101.501 28.5985 100.665 28.3846C99.7057 28.1137 98.9039 27.8215 98.2597 27.5079C97.6155 27.18 97.1289 26.7665 96.8 26.2676C96.4847 25.7544 96.3271 25.1057 96.3271 24.3216C96.3271 23.3237 96.5601 22.4826 97.0261 21.7983C97.4922 21.0997 98.1227 20.5794 98.9176 20.2372C99.7263 19.8808 100.631 19.7026 101.631 19.7026C102.289 19.7026 102.913 19.781 103.502 19.9379C104.092 20.0804 104.64 20.28 105.147 20.5366C105.668 20.7932 106.141 21.0855 106.566 21.4134L105.517 23.3807Z" fill="#FCF005"/>
<path d="M114.925 34.415C114.733 34.5147 114.493 34.6217 114.205 34.7357C113.918 34.8498 113.589 34.9496 113.219 35.0351C112.862 35.1206 112.492 35.1634 112.108 35.1634C111.642 35.1634 111.211 35.0779 110.813 34.9068C110.416 34.7357 110.093 34.4649 109.847 34.0942C109.614 33.7093 109.497 33.2174 109.497 32.6187V25.626H108.079V23.8084H109.497V20.1303H111.759V23.8084H114.103V25.626H111.759V31.8702C111.786 32.2551 111.903 32.5403 112.108 32.7256C112.328 32.9109 112.595 33.0036 112.91 33.0036C113.225 33.0036 113.527 32.9466 113.815 32.8325C114.103 32.7185 114.315 32.6258 114.452 32.5545L114.925 34.415Z" fill="#FCF005"/>
<path d="M121.182 35.2062C120.333 35.2062 119.572 35.0565 118.9 34.7571C118.229 34.4435 117.646 34.0158 117.153 33.4741C116.673 32.9323 116.303 32.3193 116.042 31.635C115.782 30.9365 115.652 30.1951 115.652 29.4111C115.652 28.627 115.782 27.8856 116.042 27.1871C116.303 26.4885 116.673 25.8755 117.153 25.3481C117.646 24.8063 118.229 24.3858 118.9 24.0864C119.586 23.7728 120.346 23.6159 121.182 23.6159C122.018 23.6159 122.772 23.7728 123.444 24.0864C124.129 24.3858 124.712 24.8063 125.191 25.3481C125.685 25.8755 126.062 26.4885 126.322 27.1871C126.583 27.8856 126.713 28.627 126.713 29.4111C126.713 30.1951 126.583 30.9365 126.322 31.635C126.062 32.3193 125.685 32.9323 125.191 33.4741C124.712 34.0158 124.129 34.4435 123.444 34.7571C122.772 35.0565 122.018 35.2062 121.182 35.2062ZM117.975 29.4324C117.975 30.1452 118.119 30.7868 118.407 31.357C118.695 31.9273 119.078 32.3763 119.558 32.7042C120.038 33.0321 120.579 33.1961 121.182 33.1961C121.772 33.1961 122.306 33.0321 122.786 32.7042C123.279 32.3621 123.67 31.9059 123.958 31.3356C124.246 30.7511 124.39 30.1096 124.39 29.4111C124.39 28.6982 124.246 28.0567 123.958 27.4865C123.67 26.9162 123.279 26.4672 122.786 26.1393C122.306 25.7971 121.772 25.626 121.182 25.626C120.579 25.626 120.038 25.7971 119.558 26.1393C119.078 26.4814 118.695 26.9376 118.407 27.5079C118.119 28.0638 117.975 28.7054 117.975 29.4324Z" fill="#FCF005"/>
<path d="M134.763 25.8399C133.886 25.8541 133.105 26.0609 132.419 26.46C131.748 26.8592 131.268 27.4223 130.98 28.1494V34.9923H128.719V23.8084H130.816V26.3103C131.186 25.5405 131.672 24.9275 132.275 24.4713C132.879 24.0009 133.516 23.7442 134.187 23.7015C134.325 23.7015 134.434 23.7015 134.516 23.7015C134.612 23.7015 134.695 23.7086 134.763 23.7229V25.8399Z" fill="#FCF005"/>
<path d="M141.08 35.2062C140.244 35.2062 139.483 35.0565 138.798 34.7571C138.127 34.4435 137.544 34.0229 137.051 33.4954C136.557 32.9537 136.173 32.3407 135.899 31.6564C135.639 30.9578 135.509 30.2165 135.509 29.4324C135.509 28.3775 135.742 27.4152 136.208 26.5456C136.674 25.6617 137.325 24.956 138.161 24.4285C138.997 23.8868 139.977 23.6159 141.101 23.6159C142.225 23.6159 143.191 23.8868 144 24.4285C144.822 24.956 145.459 25.6546 145.912 26.5242C146.364 27.3938 146.59 28.3276 146.59 29.3255C146.59 29.4966 146.583 29.6605 146.57 29.8174C146.556 29.9599 146.542 30.0811 146.529 30.1809H137.914C137.955 30.8367 138.127 31.414 138.428 31.913C138.743 32.3977 139.141 32.7826 139.62 33.0678C140.1 33.3386 140.614 33.4741 141.162 33.4741C141.766 33.4741 142.334 33.3172 142.869 33.0036C143.417 32.69 143.787 32.2765 143.979 31.7633L145.912 32.3407C145.679 32.8824 145.322 33.3743 144.843 33.8162C144.377 34.2439 143.822 34.586 143.177 34.8426C142.533 35.085 141.834 35.2062 141.08 35.2062ZM137.852 28.6198H144.349C144.308 27.9783 144.13 27.4152 143.815 26.9305C143.513 26.4315 143.122 26.0466 142.643 25.7757C142.177 25.4906 141.656 25.3481 141.08 25.3481C140.518 25.3481 139.997 25.4906 139.518 25.7757C139.052 26.0466 138.668 26.4315 138.366 26.9305C138.065 27.4152 137.894 27.9783 137.852 28.6198Z" fill="#FCF005"/>
<path d="M32.8574 5.84957C32.7859 5.76646 30.2101 5.88237 27.9687 8.41276C25.7272 10.941 26.072 13.8409 26.1225 13.9153C26.173 13.9897 29.3186 14.1056 31.3266 11.164C33.3347 8.22248 32.9289 5.93486 32.8574 5.84957ZM39.8257 31.5099C39.7247 31.2999 34.9369 28.8111 35.3827 24.0259C35.8285 19.2385 38.9047 17.9263 38.9531 17.7841C39.0014 17.642 37.6978 16.0564 36.3163 15.2538C35.302 14.6879 34.1794 14.3637 33.0298 14.3046C32.8027 14.298 32.0142 14.0968 30.3931 14.5583C29.3249 14.8623 26.9173 15.8464 26.255 15.8858C25.5905 15.9252 23.614 14.7442 21.4882 14.4314C20.1278 14.1581 18.6853 14.7179 17.6529 15.1488C16.6226 15.5774 14.6629 16.7978 13.292 20.0411C11.921 23.2823 12.638 28.4174 13.1511 30.014C13.6641 31.6083 14.4653 34.2218 15.8278 36.1289C17.0389 38.2809 18.6454 39.7746 19.3161 40.282C19.9869 40.7894 21.8793 41.1262 23.1914 40.4286C24.2469 39.7549 26.152 39.3678 26.9047 39.3963C27.6554 39.4247 29.1357 39.7331 30.6517 40.5751C31.8523 41.0059 32.9878 40.8266 34.1253 40.3454C35.2629 39.8621 36.9093 38.0294 38.8311 34.3136C39.5607 32.5859 39.893 31.652 39.8257 31.5099Z" fill="#FCF005"/>
<path d="M32.8574 5.84957C32.7859 5.76646 30.2101 5.88237 27.9687 8.41276C25.7272 10.941 26.072 13.8409 26.1225 13.9153C26.173 13.9897 29.3186 14.1056 31.3266 11.164C33.3347 8.22248 32.9289 5.93486 32.8574 5.84957ZM39.8257 31.5099C39.7247 31.2999 34.9369 28.8111 35.3827 24.0259C35.8285 19.2385 38.9047 17.9263 38.9531 17.7841C39.0014 17.642 37.6978 16.0564 36.3163 15.2538C35.302 14.6879 34.1794 14.3637 33.0298 14.3046C32.8027 14.298 32.0142 14.0968 30.3931 14.5583C29.3249 14.8623 26.9173 15.8464 26.255 15.8858C25.5905 15.9252 23.614 14.7442 21.4882 14.4314C20.1278 14.1581 18.6853 14.7179 17.6529 15.1488C16.6226 15.5774 14.6629 16.7978 13.292 20.0411C11.921 23.2823 12.638 28.4174 13.1511 30.014C13.6641 31.6083 14.4653 34.2218 15.8278 36.1289C17.0389 38.2809 18.6454 39.7746 19.3161 40.282C19.9869 40.7894 21.8793 41.1262 23.1914 40.4286C24.2469 39.7549 26.152 39.3678 26.9047 39.3963C27.6554 39.4247 29.1357 39.7331 30.6517 40.5751C31.8523 41.0059 32.9878 40.8266 34.1253 40.3454C35.2629 39.8621 36.9093 38.0294 38.8311 34.3136C39.5607 32.5859 39.893 31.652 39.8257 31.5099Z" fill="#FCF005"/>
<path d="M33.1595 4.1659C33.083 4.07725 30.3268 4.20089 27.9283 6.89996C25.5298 9.59671 25.8988 12.69 25.9528 12.7693C26.0068 12.8487 29.3728 12.9723 31.5215 9.83465C33.6703 6.69701 33.236 4.25688 33.1595 4.1659ZM40.616 31.5369C40.508 31.3129 35.3848 28.6582 35.8618 23.554C36.3388 18.4474 39.6305 17.0477 39.6823 16.8961C39.734 16.7445 38.339 15.0532 36.8608 14.197C35.7754 13.5934 34.5742 13.2476 33.344 13.1846C33.101 13.1776 32.2573 12.963 30.5225 13.4552C29.3795 13.7795 26.8033 14.8292 26.0945 14.8712C25.3835 14.9132 23.2685 13.6535 20.9938 13.3199C19.538 13.0283 17.9945 13.6255 16.8898 14.0851C15.7873 14.5423 13.6903 15.844 12.2233 19.3036C10.7563 22.7608 11.5235 28.2383 12.0725 29.9412C12.6215 31.6419 13.4788 34.4296 14.9368 36.4638C16.2328 38.7593 17.9518 40.3526 18.6695 40.8938C19.3873 41.4351 21.4123 41.7943 22.8163 41.0501C23.9458 40.3316 25.9843 39.9187 26.7898 39.9491C27.593 39.9794 29.177 40.3083 30.7993 41.2064C32.084 41.666 33.299 41.4747 34.5163 40.9615C35.7335 40.4459 37.4953 38.491 39.5518 34.5276C40.3325 32.6846 40.688 31.6885 40.616 31.5369Z" fill="#FFF200"/>
<path d="M33.1595 4.1659C33.083 4.07725 30.3268 4.20089 27.9283 6.89996C25.5298 9.59671 25.8988 12.69 25.9528 12.7693C26.0068 12.8487 29.3728 12.9723 31.5215 9.83465C33.6703 6.69701 33.236 4.25688 33.1595 4.1659ZM40.616 31.5369C40.508 31.3129 35.3848 28.6582 35.8618 23.554C36.3388 18.4474 39.6305 17.0477 39.6823 16.8961C39.734 16.7445 38.339 15.0532 36.8608 14.197C35.7754 13.5934 34.5742 13.2476 33.344 13.1846C33.101 13.1776 32.2573 12.963 30.5225 13.4552C29.3795 13.7795 26.8033 14.8292 26.0945 14.8712C25.3835 14.9132 23.2685 13.6535 20.9938 13.3199C19.538 13.0283 17.9945 13.6255 16.8898 14.0851C15.7873 14.5423 13.6903 15.844 12.2233 19.3036C10.7563 22.7608 11.5235 28.2383 12.0725 29.9412C12.6215 31.6419 13.4788 34.4296 14.9368 36.4638C16.2328 38.7593 17.9518 40.3526 18.6695 40.8938C19.3873 41.4351 21.4123 41.7943 22.8163 41.0501C23.9458 40.3316 25.9843 39.9187 26.7898 39.9491C27.593 39.9794 29.177 40.3083 30.7993 41.2064C32.084 41.666 33.299 41.4747 34.5163 40.9615C35.7335 40.4459 37.4953 38.491 39.5518 34.5276C40.3325 32.6846 40.688 31.6885 40.616 31.5369Z" fill="#FFF200"/>
</svg>
