<svg width="27" height="30" viewBox="0 0 27 30" fill="none" xmlns="http://www.w3.org/2000/svg">
<path d="M13.5 1.93548C16.1628 1.93548 18.3214 4.02963 18.3214 6.6129V7.54839H8.67857V6.6129C8.67857 4.02963 10.8372 1.93548 13.5 1.93548ZM20.25 7.54839V6.6129C20.25 2.99633 17.2279 0.0645142 13.5 0.0645142C9.77208 0.0645142 6.75 2.99633 6.75 6.6129V7.54839H0V26.2581C0 28.3247 1.7269 30 3.85714 30H23.1429C25.2731 30 27 28.3247 27 26.2581V7.54839H20.25Z" fill="#1B2C33"/>
<path d="M3.375 11.0385H23.625V24.6538C23.625 25.7584 22.7296 26.6538 21.625 26.6538H5.375C4.27043 26.6538 3.375 25.7584 3.375 24.6538V11.0385Z" fill="#F4F4E4" stroke="#F4F4E4"/>
</svg>
