<svg width="170" height="47" viewBox="0 0 170 47" fill="none" xmlns="http://www.w3.org/2000/svg">
<path d="M0 3.88804C0 1.74073 1.67278 0 3.73626 0H166.264C168.327 0 170 1.74073 170 3.88804V42.7684C170 44.9157 168.327 46.6564 166.264 46.6564H3.73626C1.67278 46.6564 0 44.9157 0 42.7684V3.88804Z" fill="#A60321"/>
<path d="M39.2308 26.3328C41.4103 24.9975 41.4103 21.659 39.2308 20.3236L33.5676 16.8537L26.8275 23.3281L33.5677 29.8026L39.2308 26.3328Z" fill="#FCF005"/>
<path d="M31.6759 30.9617L25.2782 24.8162L11.5062 38.0453C11.9284 40.2968 14.3629 41.5696 16.3462 40.3544L31.6759 30.9617Z" fill="#FCF005"/>
<path d="M11.4423 35.1303L11.4423 11.5258L23.729 23.3281L11.4423 35.1303Z" fill="#FCF005"/>
<path d="M11.5062 8.61088L25.2782 21.8399L31.6758 15.6946L16.3462 6.30205C14.363 5.08693 11.9286 6.35959 11.5062 8.61088Z" fill="#FCF005"/>
<path d="M47.1591 15.6105C46.6286 15.6105 46.1354 15.4938 45.6796 15.2605C45.2237 15.0195 44.8277 14.6968 44.4914 14.2924C44.1552 13.8881 43.8936 13.4371 43.7068 12.9394C43.5275 12.4417 43.4378 11.9285 43.4378 11.3997C43.4378 10.8398 43.5275 10.3111 43.7068 9.81341C43.8936 9.30796 44.1514 8.86084 44.4802 8.47203C44.809 8.08323 45.1976 7.77607 45.6459 7.55057C46.0943 7.32506 46.5837 7.21231 47.1143 7.21231C47.8989 7.21231 48.5378 7.37949 49.031 7.71386C49.5242 8.04824 49.8978 8.4837 50.1519 9.02025L49.5466 9.44015C49.2925 8.92693 48.9525 8.54979 48.5266 8.30873C48.1007 8.06768 47.6262 7.94715 47.1031 7.94715C46.6622 7.94715 46.2624 8.04435 45.9037 8.23875C45.5525 8.43315 45.2499 8.69365 44.9958 9.02025C44.7418 9.34684 44.5475 9.7162 44.413 10.1283C44.2859 10.5405 44.2224 10.9682 44.2224 11.4114C44.2224 11.878 44.2971 12.3212 44.4466 12.7411C44.596 13.1532 44.809 13.5226 45.0855 13.8492C45.362 14.168 45.6796 14.4207 46.0382 14.6074C46.4044 14.7862 46.7967 14.8756 47.2152 14.8756C47.7009 14.8756 48.1604 14.7512 48.5938 14.5024C49.0273 14.2458 49.442 13.8531 49.838 13.3243V14.1874C49.0833 15.1361 48.1903 15.6105 47.1591 15.6105ZM49.7147 12.1112H47.9437V11.4814H50.376V15.5521H49.7147V12.1112Z" fill="#FCF005"/>
<path d="M57.3347 14.829V15.5521H51.9881V7.27063H57.2338V7.9938H52.7727V10.9798H56.6622V11.668H52.7727V14.829H57.3347Z" fill="#FCF005"/>
<path d="M64.4677 7.9938H61.6319V15.5521H60.8472V7.9938H58.0114V7.27063H64.4677V7.9938Z" fill="#FCF005"/>
<path d="M68.1883 15.5521V7.27063H68.9729V15.5521H68.1883Z" fill="#FCF005"/>
<path d="M76.6178 7.9938H73.782V15.5521H72.9974V7.9938H70.1616V7.27063H76.6178V7.9938Z" fill="#FCF005"/>
<path d="M83.5442 15.6105C82.9837 15.6105 82.4756 15.4938 82.0198 15.2605C81.5639 15.0273 81.1716 14.7123 80.8429 14.3158C80.5141 13.9114 80.26 13.4604 80.0807 12.9627C79.9013 12.4573 79.8116 11.9402 79.8116 11.4114C79.8116 10.8593 79.9051 10.3344 80.0919 9.83673C80.2787 9.33129 80.5402 8.88416 80.8765 8.49536C81.2202 8.09878 81.62 7.78774 82.0758 7.56223C82.5316 7.32895 83.0248 7.21231 83.5554 7.21231C84.1158 7.21231 84.6239 7.33284 85.0798 7.5739C85.5356 7.81495 85.9242 8.13766 86.2455 8.54202C86.5743 8.94637 86.8283 9.39739 87.0077 9.89505C87.187 10.3927 87.2767 10.9021 87.2767 11.4231C87.2767 11.9752 87.1833 12.5039 86.9965 13.0094C86.8097 13.507 86.5481 13.9542 86.2119 14.3507C85.8756 14.7395 85.4796 15.0467 85.0237 15.2722C84.5679 15.4977 84.0747 15.6105 83.5442 15.6105ZM80.5963 11.4114C80.5963 11.8624 80.6673 12.2979 80.8092 12.7178C80.9512 13.1299 81.153 13.4993 81.4145 13.8259C81.676 14.1447 81.9862 14.4013 82.3448 14.5957C82.711 14.7823 83.1108 14.8756 83.5442 14.8756C84 14.8756 84.4072 14.7784 84.7659 14.584C85.1321 14.3818 85.4422 14.1175 85.6963 13.7909C85.9578 13.4565 86.1558 13.0832 86.2903 12.6711C86.4248 12.259 86.4921 11.8391 86.4921 11.4114C86.4921 10.9604 86.4211 10.5288 86.2791 10.1167C86.1371 9.70454 85.9316 9.33518 85.6626 9.00858C85.4011 8.68199 85.091 8.42538 84.7323 8.23875C84.3736 8.05212 83.9776 7.95881 83.5442 7.95881C83.0958 7.95881 82.6886 8.05601 82.3224 8.25041C81.9637 8.44481 81.6536 8.7092 81.3921 9.04357C81.138 9.37017 80.94 9.73953 80.798 10.1517C80.6635 10.5638 80.5963 10.9837 80.5963 11.4114Z" fill="#FCF005"/>
<path d="M89.5406 8.7753V15.5521H88.756V7.27063H89.4061L94.6294 14.1758V7.28229H95.414V15.5521H94.6854L89.5406 8.7753Z" fill="#FCF005"/>
<path d="M50.5703 35.0993C49.6114 35.0993 48.714 34.8925 47.8784 34.4791C47.0427 34.0657 46.3097 33.4954 45.6796 32.7684C45.0631 32.0413 44.5767 31.2145 44.2206 30.2878C43.8781 29.3612 43.7068 28.3775 43.7068 27.3368C43.7068 26.2961 43.8781 25.3195 44.2206 24.4072C44.5767 23.4948 45.0631 22.6822 45.6796 21.9694C46.3097 21.2565 47.0427 20.7006 47.8784 20.3014C48.7277 19.9022 49.6525 19.7026 50.6525 19.7026C52.0362 19.7026 53.2007 20.0091 54.1459 20.6221C55.1049 21.2209 55.8241 22.0192 56.3036 23.0172L54.5364 24.343C54.1528 23.5161 53.6048 22.896 52.8924 22.4826C52.1937 22.0691 51.4266 21.8624 50.5909 21.8624C49.9059 21.8624 49.2826 22.0121 48.7209 22.3115C48.1592 22.6109 47.6729 23.0243 47.2619 23.5518C46.8646 24.065 46.5632 24.6566 46.3577 25.3267C46.1522 25.9825 46.0494 26.6739 46.0494 27.4009C46.0494 28.1708 46.1659 28.8907 46.3988 29.5607C46.6317 30.2308 46.9605 30.8224 47.3852 31.3356C47.8099 31.8346 48.3099 32.2266 48.8853 32.5118C49.4607 32.7969 50.084 32.9394 50.7553 32.9394C51.5499 32.9394 52.3033 32.7327 53.0157 32.3193C53.7418 31.8916 54.4199 31.2572 55.0501 30.4161V32.8539C53.776 34.3508 52.2828 35.0993 50.5703 35.0993ZM54.8241 29.0903H51.7622V27.3154H56.7557V34.9923H54.8241V29.0903Z" fill="#FCF005"/>
<path d="M63.9223 35.2062C63.073 35.2062 62.3126 35.0565 61.6413 34.7571C60.9701 34.4435 60.3878 34.0158 59.8946 33.4741C59.4152 32.9323 59.0453 32.3193 58.785 31.635C58.5247 30.9365 58.3945 30.1951 58.3945 29.4111C58.3945 28.627 58.5247 27.8856 58.785 27.1871C59.0453 26.4885 59.4152 25.8755 59.8946 25.3481C60.3878 24.8063 60.9701 24.3858 61.6413 24.0864C62.3263 23.7728 63.0867 23.6159 63.9223 23.6159C64.758 23.6159 65.5115 23.7728 66.1828 24.0864C66.8678 24.3858 67.45 24.8063 67.9295 25.3481C68.4227 25.8755 68.7994 26.4885 69.0597 27.1871C69.32 27.8856 69.4501 28.627 69.4501 29.4111C69.4501 30.1951 69.32 30.9365 69.0597 31.635C68.7994 32.3193 68.4227 32.9323 67.9295 33.4741C67.45 34.0158 66.8678 34.4435 66.1828 34.7571C65.5115 35.0565 64.758 35.2062 63.9223 35.2062ZM60.7166 29.4324C60.7166 30.1452 60.8605 30.7868 61.1482 31.357C61.4359 31.9273 61.8194 32.3763 62.2989 32.7042C62.7784 33.0321 63.3196 33.1961 63.9223 33.1961C64.5114 33.1961 65.0457 33.0321 65.5252 32.7042C66.0184 32.3621 66.4088 31.9059 66.6965 31.3356C66.9842 30.7511 67.1281 30.1096 67.1281 29.4111C67.1281 28.6982 66.9842 28.0567 66.6965 27.4865C66.4088 26.9162 66.0184 26.4672 65.5252 26.1393C65.0457 25.7971 64.5114 25.626 63.9223 25.626C63.3196 25.626 62.7784 25.7971 62.2989 26.1393C61.8194 26.4814 61.4359 26.9376 61.1482 27.5079C60.8605 28.0638 60.7166 28.7054 60.7166 29.4324Z" fill="#FCF005"/>
<path d="M76.2841 35.2062C75.4347 35.2062 74.6744 35.0565 74.0031 34.7571C73.3318 34.4435 72.7496 34.0158 72.2564 33.4741C71.7769 32.9323 71.407 32.3193 71.1468 31.635C70.8865 30.9365 70.7563 30.1951 70.7563 29.4111C70.7563 28.627 70.8865 27.8856 71.1468 27.1871C71.407 26.4885 71.7769 25.8755 72.2564 25.3481C72.7496 24.8063 73.3318 24.3858 74.0031 24.0864C74.6881 23.7728 75.4484 23.6159 76.2841 23.6159C77.1198 23.6159 77.8733 23.7728 78.5446 24.0864C79.2295 24.3858 79.8118 24.8063 80.2913 25.3481C80.7844 25.8755 81.1612 26.4885 81.4215 27.1871C81.6818 27.8856 81.8119 28.627 81.8119 29.4111C81.8119 30.1951 81.6818 30.9365 81.4215 31.635C81.1612 32.3193 80.7844 32.9323 80.2913 33.4741C79.8118 34.0158 79.2295 34.4435 78.5446 34.7571C77.8733 35.0565 77.1198 35.2062 76.2841 35.2062ZM73.0784 29.4324C73.0784 30.1452 73.2223 30.7868 73.5099 31.357C73.7976 31.9273 74.1812 32.3763 74.6607 32.7042C75.1402 33.0321 75.6813 33.1961 76.2841 33.1961C76.8732 33.1961 77.4075 33.0321 77.887 32.7042C78.3802 32.3621 78.7706 31.9059 79.0583 31.3356C79.346 30.7511 79.4898 30.1096 79.4898 29.4111C79.4898 28.6982 79.346 28.0567 79.0583 27.4865C78.7706 26.9162 78.3802 26.4672 77.887 26.1393C77.4075 25.7971 76.8732 25.626 76.2841 25.626C75.6813 25.626 75.1402 25.7971 74.6607 26.1393C74.1812 26.4814 73.7976 26.9376 73.5099 27.5079C73.2223 28.0638 73.0784 28.7054 73.0784 29.4324Z" fill="#FCF005"/>
<path d="M88.0705 35.0993C87.3444 35.0993 86.68 34.9496 86.0772 34.6502C85.4744 34.3365 84.9538 33.916 84.5154 33.3885C84.0908 32.861 83.7551 32.2552 83.5085 31.5709C83.2756 30.8866 83.1592 30.1666 83.1592 29.4111C83.1592 28.6127 83.2825 27.8643 83.5291 27.1657C83.7757 26.4672 84.1182 25.8541 84.5566 25.3267C85.0086 24.7849 85.5361 24.3644 86.1389 24.065C86.7416 23.7656 87.4129 23.6159 88.1527 23.6159C89.0158 23.6159 89.7693 23.8298 90.4131 24.2575C91.0707 24.6851 91.6119 25.2411 92.0366 25.9254V23.8084H94.0299V34.6716C94.0299 35.755 93.7764 36.6746 93.2695 37.4301C92.7763 38.1857 92.0982 38.7631 91.2351 39.1623C90.372 39.5614 89.3994 39.761 88.3171 39.761C87.1252 39.761 86.1389 39.5472 85.358 39.1195C84.5771 38.6918 83.9127 38.1073 83.3647 37.366L84.6387 36.1257C85.0497 36.7244 85.5772 37.1806 86.2211 37.4943C86.8786 37.8079 87.5773 37.9647 88.3171 37.9647C88.9336 37.9647 89.5021 37.8436 90.0227 37.6012C90.557 37.3731 90.9817 37.0096 91.2968 36.5106C91.6119 36.0259 91.7694 35.4129 91.7694 34.6716V32.9608C91.3858 33.6309 90.8584 34.1583 90.1871 34.5433C89.5158 34.9139 88.8103 35.0993 88.0705 35.0993ZM88.8103 33.1961C89.1528 33.1961 89.4816 33.139 89.7967 33.025C90.1118 32.8967 90.3994 32.7327 90.6597 32.5331C90.9337 32.3193 91.1666 32.0841 91.3584 31.8275C91.5502 31.5566 91.6872 31.2715 91.7694 30.9721V28.0425C91.5913 27.5578 91.3379 27.1372 91.0091 26.7808C90.6803 26.4101 90.3104 26.125 89.8994 25.9254C89.4884 25.7258 89.0706 25.626 88.6459 25.626C88.1527 25.626 87.7075 25.7401 87.3102 25.9682C86.9266 26.182 86.5978 26.4743 86.3238 26.8449C86.0498 27.2014 85.8375 27.6077 85.6868 28.0638C85.5361 28.52 85.4607 28.9905 85.4607 29.4752C85.4607 29.9884 85.5429 30.466 85.7073 30.9079C85.8854 31.3499 86.1252 31.7491 86.4266 32.1055C86.7279 32.4476 87.0841 32.7185 87.4951 32.9181C87.9061 33.1034 88.3445 33.1961 88.8103 33.1961Z" fill="#FCF005"/>
<path d="M96.761 19.3819H99.0214V31.7633C99.0214 32.3336 99.1036 32.6971 99.268 32.8539C99.4324 33.0107 99.6379 33.0891 99.8845 33.0891C100.159 33.0891 100.412 33.0606 100.645 33.0036C100.891 32.9466 101.104 32.8753 101.282 32.7898L101.611 34.6502C101.282 34.7927 100.891 34.9139 100.439 35.0137C99.9873 35.1135 99.5831 35.1634 99.2269 35.1634C98.4597 35.1634 97.857 34.9424 97.4186 34.5005C96.9802 34.0443 96.761 33.417 96.761 32.6187V19.3819Z" fill="#FCF005"/>
<path d="M107.792 35.2062C106.956 35.2062 106.196 35.0565 105.511 34.7571C104.839 34.4435 104.257 34.0229 103.764 33.4954C103.271 32.9537 102.887 32.3407 102.613 31.6564C102.353 30.9578 102.223 30.2165 102.223 29.4324C102.223 28.3775 102.456 27.4152 102.921 26.5456C103.387 25.6617 104.038 24.956 104.874 24.4285C105.709 23.8868 106.689 23.6159 107.812 23.6159C108.935 23.6159 109.901 23.8868 110.71 24.4285C111.532 24.956 112.169 25.6546 112.621 26.5242C113.073 27.3938 113.299 28.3276 113.299 29.3255C113.299 29.4966 113.292 29.6605 113.278 29.8174C113.265 29.9599 113.251 30.0811 113.237 30.1809H104.627C104.668 30.8367 104.839 31.414 105.141 31.913C105.456 32.3977 105.853 32.7826 106.333 33.0678C106.812 33.3386 107.326 33.4741 107.874 33.4741C108.477 33.4741 109.045 33.3172 109.579 33.0036C110.127 32.69 110.497 32.2765 110.689 31.7633L112.621 32.3407C112.388 32.8824 112.032 33.3743 111.552 33.8162C111.086 34.2439 110.531 34.586 109.888 34.8426C109.244 35.085 108.545 35.2062 107.792 35.2062ZM104.565 28.6198H111.059C111.018 27.9783 110.84 27.4152 110.525 26.9305C110.223 26.4315 109.833 26.0466 109.353 25.7757C108.888 25.4906 108.367 25.3481 107.792 25.3481C107.23 25.3481 106.709 25.4906 106.23 25.7757C105.764 26.0466 105.38 26.4315 105.079 26.9305C104.778 27.4152 104.606 27.9783 104.565 28.6198Z" fill="#FCF005"/>
<path d="M120.507 34.9923V19.8095H126.631C127.289 19.8095 127.892 19.9521 128.44 20.2372C128.988 20.5224 129.467 20.9001 129.878 21.3706C130.289 21.841 130.604 22.3685 130.823 22.953C131.043 23.5375 131.152 24.1363 131.152 24.7493C131.152 25.5904 130.967 26.3959 130.597 27.1657C130.241 27.9213 129.727 28.5343 129.056 29.0048C128.398 29.4752 127.631 29.7104 126.755 29.7104H122.809V34.9923H120.507ZM122.809 27.5934H126.611C127.049 27.5934 127.433 27.4722 127.761 27.2299C128.09 26.9733 128.344 26.6311 128.522 26.2034C128.714 25.7757 128.809 25.291 128.809 24.7493C128.809 24.1933 128.7 23.7015 128.481 23.2738C128.261 22.8461 127.974 22.5182 127.618 22.2901C127.275 22.0478 126.898 21.9266 126.487 21.9266H122.809V27.5934Z" fill="#FCF005"/>
<path d="M133.044 19.3819H135.304V31.7633C135.304 32.3336 135.386 32.6971 135.551 32.8539C135.715 33.0107 135.921 33.0891 136.167 33.0891C136.441 33.0891 136.695 33.0606 136.927 33.0036C137.174 32.9466 137.386 32.8753 137.564 32.7898L137.893 34.6502C137.564 34.7927 137.174 34.9139 136.722 35.0137C136.27 35.1135 135.866 35.1634 135.51 35.1634C134.742 35.1634 134.14 34.9424 133.701 34.5005C133.263 34.0443 133.044 33.417 133.044 32.6187V19.3819Z" fill="#FCF005"/>
<path d="M138.423 31.7205C138.423 31.0077 138.615 30.3876 138.998 29.8601C139.396 29.3184 139.937 28.905 140.622 28.6198C141.307 28.3205 142.101 28.1708 143.006 28.1708C143.485 28.1708 143.971 28.2064 144.465 28.2777C144.972 28.349 145.417 28.463 145.8 28.6198V27.9142C145.8 27.1301 145.574 26.5171 145.122 26.0751C144.67 25.6332 144.019 25.4122 143.17 25.4122C142.567 25.4122 141.999 25.5263 141.464 25.7544C140.93 25.9682 140.362 26.2747 139.759 26.6739L138.998 25.0914C139.711 24.5925 140.423 24.2218 141.136 23.9795C141.862 23.7371 142.622 23.6159 143.417 23.6159C144.855 23.6159 145.985 24.0151 146.807 24.8134C147.643 25.5975 148.061 26.7166 148.061 28.1708V32.3407C148.061 32.6116 148.102 32.804 148.184 32.9181C148.28 33.0321 148.438 33.0963 148.657 33.1105V34.9923C148.451 35.0351 148.266 35.0636 148.102 35.0779C147.937 35.0921 147.8 35.0993 147.691 35.0993C147.211 35.0993 146.848 34.9781 146.602 34.7357C146.355 34.4934 146.211 34.2082 146.17 33.8803L146.109 33.2388C145.643 33.8661 145.047 34.3508 144.321 34.693C143.595 35.0351 142.862 35.2062 142.122 35.2062C141.41 35.2062 140.773 35.0565 140.211 34.7571C139.649 34.4435 139.211 34.0229 138.896 33.4954C138.581 32.968 138.423 32.3763 138.423 31.7205ZM145.266 32.4048C145.43 32.2195 145.561 32.0342 145.656 31.8489C145.752 31.6635 145.8 31.4996 145.8 31.357V30.074C145.417 29.9171 145.013 29.8031 144.588 29.7318C144.163 29.6463 143.745 29.6035 143.334 29.6035C142.512 29.6035 141.841 29.7746 141.321 30.1167C140.814 30.4589 140.56 30.9293 140.56 31.5281C140.56 31.856 140.642 32.1696 140.807 32.469C140.985 32.7684 141.232 33.0107 141.547 33.1961C141.875 33.3814 142.28 33.4741 142.759 33.4741C143.252 33.4741 143.725 33.3743 144.177 33.1747C144.629 32.9751 144.992 32.7185 145.266 32.4048Z" fill="#FCF005"/>
<path d="M150.792 37.6226C150.997 37.6511 151.196 37.6796 151.388 37.7081C151.593 37.7509 151.758 37.7723 151.881 37.7723C152.114 37.7723 152.312 37.6939 152.477 37.5371C152.655 37.3945 152.833 37.1236 153.011 36.7245C153.189 36.3253 153.408 35.7479 153.669 34.9923L149.251 23.8084H151.614L154.902 32.5973L157.82 23.8084H159.998L155.128 37.5798C154.977 37.9932 154.758 38.371 154.47 38.7132C154.182 39.0696 153.826 39.3476 153.402 39.5472C152.977 39.7468 152.477 39.8465 151.901 39.8465C151.737 39.8465 151.566 39.8323 151.388 39.8038C151.21 39.7753 151.011 39.7325 150.792 39.6755V37.6226Z" fill="#FCF005"/>
</svg>
