<svg width="84" height="27" viewBox="0 0 84 27" fill="none" xmlns="http://www.w3.org/2000/svg">
<path d="M9.73828 24.3895C9.60482 24.3895 9.49089 24.3797 9.39648 24.3602C9.30208 24.3406 9.21419 24.3089 9.13281 24.265C9.05306 24.221 8.96761 24.164 8.87646 24.0941L8.79102 24.3187H8.00244V23.1297H8.78613C8.83659 23.2664 8.9139 23.3633 9.01807 23.4202C9.12386 23.4756 9.25326 23.5032 9.40625 23.5032C9.50065 23.5032 9.58122 23.4845 9.64795 23.4471C9.71468 23.408 9.74805 23.3568 9.74805 23.2933C9.74805 23.2135 9.71387 23.1541 9.64551 23.1151C9.57715 23.0744 9.48112 23.0369 9.35742 23.0027C9.19954 22.9604 9.05632 22.9157 8.92773 22.8685C8.80078 22.8213 8.68685 22.7724 8.58594 22.722C8.38411 22.6211 8.22135 22.4778 8.09766 22.2923C7.97396 22.1068 7.91211 21.8602 7.91211 21.5526C7.91211 21.3165 7.96338 21.1082 8.06592 20.9276C8.16683 20.7485 8.31169 20.6094 8.50049 20.5101C8.69092 20.4092 8.91471 20.3587 9.17188 20.3587C9.486 20.3587 9.73421 20.4588 9.9165 20.659L10.041 20.4295H10.7417V21.5941H9.99219C9.9222 21.4476 9.84489 21.3458 9.76025 21.2889C9.67562 21.2319 9.55924 21.2034 9.41113 21.2034C9.29883 21.2034 9.21175 21.2238 9.1499 21.2645C9.08805 21.3035 9.05713 21.3581 9.05713 21.428C9.05713 21.5062 9.10189 21.5656 9.19141 21.6063C9.2793 21.6486 9.40462 21.6876 9.56738 21.7234C9.85221 21.7886 10.098 21.8707 10.3047 21.97C10.5065 22.0693 10.6676 22.2101 10.7881 22.3924C10.9102 22.5731 10.9712 22.8066 10.9712 23.0931C10.9712 23.3356 10.9207 23.5553 10.8198 23.7523C10.7173 23.9492 10.5716 24.1046 10.3828 24.2186C10.1956 24.3325 9.98079 24.3895 9.73828 24.3895ZM16.2812 22.6585V23.6131H16.6206V24.3187H15.1118V22.6536C15.1118 22.5836 15.089 22.5218 15.0435 22.4681C14.9979 22.4144 14.9434 22.3875 14.8799 22.3875C14.7611 22.3875 14.6862 22.4469 14.6553 22.5657C14.6227 22.6878 14.6064 22.8587 14.6064 23.0784V24.3187H13.4346V22.6536C13.4346 22.5836 13.4118 22.5218 13.3662 22.4681C13.3223 22.4144 13.2686 22.3875 13.2051 22.3875C13.0863 22.3875 13.0114 22.4469 12.9805 22.5657C12.9479 22.6878 12.9316 22.8587 12.9316 23.0784V23.6131H12.9365V24.3187H11.4106V23.6131H11.7646V22.4583H11.4106V21.7991L12.9316 21.6526V22.0189C13.0439 21.8854 13.1717 21.791 13.3149 21.7357C13.4582 21.6803 13.6201 21.6526 13.8008 21.6526C14.1702 21.6526 14.4119 21.8097 14.5259 22.1238C14.6463 21.9529 14.7847 21.8317 14.9409 21.7601C15.0972 21.6885 15.2754 21.6526 15.4756 21.6526C16.0127 21.6526 16.2812 21.9879 16.2812 22.6585ZM18.3467 24.3626C18.0505 24.3626 17.7925 24.3081 17.5728 24.199C17.3498 24.0916 17.1764 23.9337 17.0527 23.7254C16.929 23.5171 16.8672 23.2697 16.8672 22.9832C16.8672 22.6984 16.929 22.4567 17.0527 22.2581C17.1764 22.0579 17.3498 21.9074 17.5728 21.8065C17.7957 21.7039 18.0537 21.6526 18.3467 21.6526C18.6478 21.6526 18.909 21.7047 19.1304 21.8089C19.3534 21.9131 19.5259 22.0644 19.6479 22.263C19.77 22.4599 19.8311 22.7 19.8311 22.9832C19.8311 23.2697 19.77 23.5171 19.6479 23.7254C19.5243 23.9337 19.3501 24.0924 19.1255 24.2015C18.9025 24.3089 18.6429 24.3626 18.3467 24.3626ZM18.3467 23.6497C18.4541 23.6497 18.5339 23.5968 18.5859 23.491C18.6364 23.3885 18.6616 23.2192 18.6616 22.9832C18.6616 22.7667 18.6364 22.6105 18.5859 22.5145C18.5371 22.4168 18.4574 22.368 18.3467 22.368C18.2409 22.368 18.1628 22.4168 18.1123 22.5145C18.0618 22.6105 18.0366 22.7667 18.0366 22.9832C18.0366 23.2143 18.0627 23.3836 18.1147 23.491C18.1668 23.5968 18.2441 23.6497 18.3467 23.6497ZM23.1489 22.4583L22.729 22.8099L23.2344 23.5838H23.6177V24.3187H22.4531L21.7378 23.2493V24.3187H20.1387V23.5838H20.5684V21.3328H20.1387V20.6688L21.7378 20.5076V22.8831L22.248 22.4583H21.9795V21.7039H23.5396V22.4583H23.1489ZM24.8164 21.4476C24.613 21.4476 24.4453 21.3996 24.3135 21.3035C24.1816 21.2075 24.1157 21.0692 24.1157 20.8885C24.1157 20.7078 24.1816 20.5711 24.3135 20.4783C24.4453 20.3856 24.6146 20.3392 24.8213 20.3392C25.028 20.3392 25.1956 20.3847 25.3242 20.4759C25.4544 20.567 25.5195 20.7046 25.5195 20.8885C25.5195 21.0692 25.4528 21.2075 25.3193 21.3035C25.1875 21.3996 25.0199 21.4476 24.8164 21.4476ZM25.7148 23.5838V24.3187H23.9155V23.5838H24.2305V22.4583H23.9155V21.8577L25.3999 21.7039V23.5838H25.7148ZM29.3232 22.6585V23.6131H29.6626V24.3187H28.1514V22.6536C28.1514 22.5836 28.1286 22.5218 28.083 22.4681C28.0391 22.4144 27.9854 22.3875 27.9219 22.3875C27.8031 22.3875 27.7282 22.4469 27.6973 22.5657C27.6647 22.6878 27.6484 22.8587 27.6484 23.0784V23.6131H27.6533V24.3187H26.1274V23.6131H26.4814V22.4583H26.1274V21.7991L27.6484 21.6526V22.0189C27.7607 21.8854 27.8885 21.791 28.0317 21.7357C28.175 21.6803 28.3369 21.6526 28.5176 21.6526C29.0547 21.6526 29.3232 21.9879 29.3232 22.6585ZM30.546 20.8037C30.516 20.9203 30.4776 21.047 30.431 21.1837C30.3843 21.3203 30.3326 21.457 30.276 21.5937C30.2226 21.727 30.1693 21.8537 30.116 21.9737H29.791C29.8143 21.8803 29.8376 21.7803 29.861 21.6737C29.8876 21.567 29.911 21.4603 29.931 21.3537C29.9543 21.2437 29.9743 21.137 29.991 21.0337C30.011 20.9303 30.0276 20.8353 30.041 20.7487H30.511L30.546 20.8037ZM34.2476 24.3187H32.0576V23.4593H32.5288V21.2938H32.1235V20.4295H34.1084C34.4307 20.4295 34.7057 20.4555 34.9336 20.5076C35.1566 20.5613 35.334 20.6639 35.4658 20.8152C35.5977 20.965 35.6636 21.1774 35.6636 21.4525C35.6636 21.6461 35.6074 21.8146 35.4951 21.9578C35.3828 22.1011 35.2404 22.2044 35.0679 22.2679C35.2941 22.3655 35.4609 22.4917 35.5684 22.6463C35.6774 22.8009 35.7319 23.0133 35.7319 23.2835C35.7319 23.6139 35.6025 23.8694 35.3438 24.0501C35.0866 24.2291 34.7212 24.3187 34.2476 24.3187ZM33.7788 21.2938V21.9993H33.9131C34.0986 21.9993 34.2354 21.9733 34.3232 21.9212C34.4128 21.8691 34.4575 21.7715 34.4575 21.6282C34.4575 21.529 34.4266 21.4484 34.3647 21.3865C34.3029 21.3247 34.2223 21.2938 34.123 21.2938H33.7788ZM33.7788 22.639V23.4593H33.8667C34.0636 23.4593 34.215 23.4316 34.3208 23.3763C34.4282 23.3209 34.4819 23.207 34.4819 23.0345C34.4819 22.7676 34.3192 22.6341 33.9937 22.6341C33.9578 22.6341 33.922 22.6349 33.8862 22.6365C33.8504 22.6365 33.8146 22.6373 33.7788 22.639ZM38.3589 24.3187H36.1689V23.4593H36.6401V21.2938H36.2349V20.4295H38.2197C38.542 20.4295 38.8171 20.4555 39.0449 20.5076C39.2679 20.5613 39.4453 20.6639 39.5771 20.8152C39.709 20.965 39.7749 21.1774 39.7749 21.4525C39.7749 21.6461 39.7188 21.8146 39.6064 21.9578C39.4941 22.1011 39.3517 22.2044 39.1792 22.2679C39.4054 22.3655 39.5723 22.4917 39.6797 22.6463C39.7887 22.8009 39.8433 23.0133 39.8433 23.2835C39.8433 23.6139 39.7139 23.8694 39.4551 24.0501C39.1979 24.2291 38.8325 24.3187 38.3589 24.3187ZM37.8901 21.2938V21.9993H38.0244C38.21 21.9993 38.3467 21.9733 38.4346 21.9212C38.5241 21.8691 38.5688 21.7715 38.5688 21.6282C38.5688 21.529 38.5379 21.4484 38.4761 21.3865C38.4142 21.3247 38.3337 21.2938 38.2344 21.2938H37.8901ZM37.8901 22.639V23.4593H37.978C38.175 23.4593 38.3263 23.4316 38.4321 23.3763C38.5396 23.3209 38.5933 23.207 38.5933 23.0345C38.5933 22.7676 38.4305 22.6341 38.105 22.6341C38.0692 22.6341 38.0334 22.6349 37.9976 22.6365C37.9618 22.6365 37.9259 22.6373 37.8901 22.639ZM42.2944 24.3895C41.9087 24.3895 41.5645 24.3016 41.2617 24.1258C40.9574 23.9516 40.7189 23.7116 40.5464 23.4056C40.3755 23.098 40.29 22.7521 40.29 22.368C40.29 21.9708 40.3722 21.6193 40.5366 21.3133C40.701 21.0106 40.9329 20.7762 41.2324 20.6102C41.5335 20.4425 41.8875 20.3587 42.2944 20.3587C42.703 20.3587 43.057 20.4417 43.3564 20.6077C43.6576 20.7754 43.8887 21.0114 44.0498 21.3157C44.2126 21.6185 44.2939 21.9692 44.2939 22.368C44.2939 22.7684 44.2012 23.1273 44.0156 23.4446L44.0254 23.4398H44.4209V24.3187H42.8657C42.6737 24.3659 42.4832 24.3895 42.2944 24.3895ZM42.2944 23.5447C42.4084 23.5447 42.5052 23.491 42.585 23.3836C42.6647 23.2746 42.7249 23.1297 42.7656 22.949C42.8079 22.7667 42.8291 22.5665 42.8291 22.3484C42.8291 22.1417 42.8088 21.9554 42.7681 21.7894C42.729 21.6217 42.6696 21.4891 42.5898 21.3914C42.5117 21.2921 42.4132 21.2425 42.2944 21.2425C42.1756 21.2425 42.0755 21.2921 41.9941 21.3914C41.9144 21.4891 41.8542 21.6217 41.8135 21.7894C41.7744 21.9554 41.7549 22.1417 41.7549 22.3484C41.7549 22.5665 41.776 22.7667 41.8184 22.949C41.8607 23.1297 41.9217 23.2746 42.0015 23.3836C42.0828 23.491 42.1805 23.5447 42.2944 23.5447ZM47.9219 24.3895C47.7884 24.3895 47.6745 24.3797 47.5801 24.3602C47.4857 24.3406 47.3978 24.3089 47.3164 24.265C47.2367 24.221 47.1512 24.164 47.0601 24.0941L46.9746 24.3187H46.186V23.1297H46.9697C47.0202 23.2664 47.0975 23.3633 47.2017 23.4202C47.3075 23.4756 47.4368 23.5032 47.5898 23.5032C47.6842 23.5032 47.7648 23.4845 47.8315 23.4471C47.8983 23.408 47.9316 23.3568 47.9316 23.2933C47.9316 23.2135 47.8975 23.1541 47.8291 23.1151C47.7607 23.0744 47.6647 23.0369 47.541 23.0027C47.3831 22.9604 47.2399 22.9157 47.1113 22.8685C46.9844 22.8213 46.8704 22.7724 46.7695 22.722C46.5677 22.6211 46.4049 22.4778 46.2812 22.2923C46.1576 22.1068 46.0957 21.8602 46.0957 21.5526C46.0957 21.3165 46.147 21.1082 46.2495 20.9276C46.3504 20.7485 46.4953 20.6094 46.6841 20.5101C46.8745 20.4092 47.0983 20.3587 47.3555 20.3587C47.6696 20.3587 47.9178 20.4588 48.1001 20.659L48.2246 20.4295H48.9253V21.5941H48.1758C48.1058 21.4476 48.0285 21.3458 47.9438 21.2889C47.8592 21.2319 47.7428 21.2034 47.5947 21.2034C47.4824 21.2034 47.3953 21.2238 47.3335 21.2645C47.2716 21.3035 47.2407 21.3581 47.2407 21.428C47.2407 21.5062 47.2855 21.5656 47.375 21.6063C47.4629 21.6486 47.5882 21.6876 47.751 21.7234C48.0358 21.7886 48.2816 21.8707 48.4883 21.97C48.6901 22.0693 48.8512 22.2101 48.9717 22.3924C49.0938 22.5731 49.1548 22.8066 49.1548 23.0931C49.1548 23.3356 49.1043 23.5553 49.0034 23.7523C48.9009 23.9492 48.7552 24.1046 48.5664 24.2186C48.3792 24.3325 48.1644 24.3895 47.9219 24.3895ZM51.2959 24.3187H49.5747V23.5838H49.8848V21.3328H49.5747V20.6688L51.0591 20.5076V22.0848C51.1226 21.9676 51.2332 21.8667 51.3911 21.782C51.5506 21.6958 51.7272 21.6526 51.9209 21.6526C52.2041 21.6526 52.4181 21.7365 52.563 21.9041C52.7078 22.0701 52.7803 22.3037 52.7803 22.6048V23.5838H53.0903V24.3187H51.6035V22.7244C51.6035 22.6268 51.575 22.5462 51.5181 22.4827C51.4627 22.4193 51.3984 22.3875 51.3252 22.3875C51.2422 22.3875 51.1771 22.416 51.1299 22.473C51.0827 22.5299 51.0591 22.6064 51.0591 22.7025V23.5838H51.2959V24.3187ZM54.2183 24.3626C54.0522 24.3626 53.9017 24.3301 53.7666 24.265C53.6299 24.2015 53.5208 24.1095 53.4395 23.9891C53.3581 23.8686 53.3174 23.7287 53.3174 23.5692C53.3174 23.3966 53.3654 23.2501 53.4614 23.1297C53.5575 23.0125 53.6828 22.9246 53.8374 22.866C53.9937 22.8074 54.1621 22.7781 54.3428 22.7781C54.556 22.7781 54.7611 22.8099 54.958 22.8734V22.7635C54.958 22.6333 54.9027 22.534 54.792 22.4656C54.6829 22.3973 54.5348 22.3631 54.3477 22.3631C54.2679 22.3631 54.1784 22.3729 54.0791 22.3924C53.9798 22.4119 53.883 22.4388 53.7886 22.473C53.6942 22.5071 53.612 22.5454 53.542 22.5877L53.4712 22.5584V21.848C53.6681 21.778 53.8691 21.7283 54.0742 21.699C54.2793 21.6681 54.4705 21.6526 54.6479 21.6526C55.6375 21.6526 56.1323 21.931 56.1323 22.4876V23.5838H56.3618V24.3187H55.1118L55.002 23.9183C54.932 24.055 54.8229 24.1632 54.6748 24.243C54.5267 24.3227 54.3745 24.3626 54.2183 24.3626ZM54.6772 23.7376C54.731 23.7376 54.7855 23.7287 54.8408 23.7108C54.8978 23.6929 54.9368 23.6741 54.958 23.6546V23.2444C54.9336 23.2412 54.8945 23.2314 54.8408 23.2151C54.7855 23.2005 54.7375 23.1932 54.6968 23.1932C54.6105 23.1932 54.5413 23.22 54.4893 23.2737C54.4388 23.3275 54.4136 23.3991 54.4136 23.4886C54.4136 23.5553 54.4372 23.6139 54.4844 23.6644C54.5332 23.7132 54.5975 23.7376 54.6772 23.7376ZM58.1758 24.3626C57.8779 24.3626 57.6183 24.3056 57.397 24.1917C57.174 24.0794 57.0007 23.9199 56.877 23.7132C56.7533 23.5065 56.6914 23.2632 56.6914 22.9832C56.6914 22.7309 56.7435 22.5039 56.8477 22.3021C56.9502 22.1002 57.0967 21.9415 57.2871 21.826C57.4792 21.7104 57.7021 21.6526 57.9561 21.6526C58.0521 21.6526 58.1538 21.6649 58.2612 21.6893C58.3687 21.7121 58.4647 21.7462 58.5493 21.7918C58.6356 21.8374 58.6925 21.8943 58.7202 21.9627L58.8203 21.7039H59.3525V22.783H58.647C58.634 22.6528 58.5957 22.5511 58.5322 22.4778C58.4688 22.4046 58.3898 22.368 58.2954 22.368C58.1554 22.368 58.0488 22.4127 57.9756 22.5023C57.9023 22.5901 57.8657 22.7521 57.8657 22.9881C57.8657 23.1509 57.895 23.2794 57.9536 23.3738C58.0138 23.4666 58.0911 23.5333 58.1855 23.574C58.2816 23.6131 58.3833 23.6326 58.4907 23.6326C58.6079 23.6326 58.7349 23.6123 58.8716 23.5716C59.0083 23.5293 59.1296 23.4634 59.2354 23.3738L59.272 23.3983V24.0794C59.272 24.0859 59.2223 24.1136 59.123 24.1624C59.0238 24.2129 58.8919 24.2593 58.7275 24.3016C58.5632 24.3423 58.3792 24.3626 58.1758 24.3626ZM62.7192 22.4583L62.2993 22.8099L62.8047 23.5838H63.188V24.3187H62.0234L61.3081 23.2493V24.3187H59.709V23.5838H60.1387V21.3328H59.709V20.6688L61.3081 20.5076V22.8831L61.8184 22.4583H61.5498V21.7039H63.1099V22.4583H62.7192Z" fill="#1B2C33"/>
<path d="M13.2535 19.7226C12.4135 19.7226 11.6735 19.5759 11.0335 19.2826C10.3935 18.9893 9.90018 18.5826 9.55352 18.0626C9.20685 17.5293 9.03352 16.9159 9.03352 16.2226C9.03352 15.6359 9.15352 15.1026 9.39352 14.6226C9.64685 14.1426 9.98018 13.7626 10.3935 13.4826C10.8202 13.2026 11.2868 13.0626 11.7935 13.0626C12.2602 13.0626 12.6535 13.1826 12.9735 13.4226C13.2935 13.6493 13.4935 13.9693 13.5735 14.3826C12.8802 14.3826 12.3268 14.5693 11.9135 14.9426C11.5002 15.3026 11.2935 15.7959 11.2935 16.4226C11.2935 16.9959 11.4668 17.4559 11.8135 17.8026C12.1602 18.1493 12.6202 18.3226 13.1935 18.3226C13.9002 18.3226 14.4802 18.0893 14.9335 17.6226C15.4002 17.1426 15.6335 16.5426 15.6335 15.8226C15.6335 15.1959 15.4602 14.6026 15.1135 14.0426C14.7668 13.4826 14.2468 12.8026 13.5535 12.0026C12.8335 11.1759 12.2868 10.4693 11.9135 9.88261C11.5535 9.28261 11.3735 8.62928 11.3735 7.92261C11.3735 7.22928 11.5668 6.60928 11.9535 6.06261C12.3402 5.50261 12.8735 5.06261 13.5535 4.74261C14.2335 4.42261 15.0002 4.26261 15.8535 4.26261C16.9335 4.26261 17.7935 4.51594 18.4335 5.02261C19.0868 5.52928 19.4135 6.20928 19.4135 7.06261C19.4135 7.62261 19.2735 8.07594 18.9935 8.42261C18.7135 8.76928 18.3468 8.94261 17.8935 8.94261C17.3868 8.94261 16.9802 8.73594 16.6735 8.32261C16.9268 8.13594 17.1268 7.88928 17.2735 7.58261C17.4202 7.27594 17.4935 6.95594 17.4935 6.62261C17.4935 6.19594 17.3668 5.85594 17.1135 5.60261C16.8602 5.34928 16.5135 5.22261 16.0735 5.22261C15.5402 5.22261 15.1002 5.41594 14.7535 5.80261C14.4202 6.17594 14.2535 6.65594 14.2535 7.24261C14.2535 7.77594 14.4068 8.27594 14.7135 8.74261C15.0202 9.19594 15.5002 9.78261 16.1535 10.5026C16.6868 11.0759 17.1135 11.5693 17.4335 11.9826C17.7668 12.3959 18.0468 12.8759 18.2735 13.4226C18.5135 13.9559 18.6335 14.5359 18.6335 15.1626C18.6335 16.0159 18.3935 16.7893 17.9135 17.4826C17.4468 18.1759 16.8002 18.7226 15.9735 19.1226C15.1602 19.5226 14.2535 19.7226 13.2535 19.7226ZM31.9198 19.4826C31.1064 19.4826 30.5064 19.2693 30.1198 18.8426C29.7464 18.4026 29.5598 17.8626 29.5598 17.2226C29.5598 16.9426 29.5931 16.6293 29.6598 16.2826C29.7264 15.9226 29.7931 15.5759 29.8598 15.2426C29.9398 14.9093 29.9931 14.6959 30.0198 14.6026C30.1264 14.1359 30.2264 13.6759 30.3198 13.2226C30.4131 12.7693 30.4598 12.4026 30.4598 12.1226C30.4598 11.4426 30.2198 11.1026 29.7398 11.1026C29.3931 11.1026 29.0864 11.2759 28.8198 11.6226C28.5531 11.9559 28.3398 12.3959 28.1798 12.9426L26.8198 19.3626H23.9398L25.3998 12.4626C25.4398 12.3026 25.4598 12.1359 25.4598 11.9626C25.4598 11.3759 25.2598 11.0826 24.8598 11.0826C24.4864 11.0826 24.1598 11.2559 23.8798 11.6026C23.6131 11.9359 23.3998 12.3826 23.2398 12.9426L21.8798 19.3626H18.9998L21.1198 9.36261H23.9998L23.7798 10.4026C24.4598 9.64261 25.2731 9.26261 26.2198 9.26261C27.3931 9.26261 28.0798 9.83594 28.2798 10.9826C29.0131 9.84928 29.9398 9.28261 31.0598 9.28261C31.7398 9.28261 32.2798 9.46928 32.6798 9.84261C33.0798 10.2159 33.2798 10.7826 33.2798 11.5426C33.2798 11.9293 33.2331 12.3626 33.1398 12.8426C33.0464 13.3093 32.9131 13.8826 32.7398 14.5626C32.6331 14.9759 32.5331 15.3826 32.4398 15.7826C32.3598 16.1693 32.3198 16.4759 32.3198 16.7026C32.3198 16.9693 32.3798 17.1759 32.4998 17.3226C32.6198 17.4693 32.8264 17.5426 33.1198 17.5426C33.5198 17.5426 33.8398 17.4026 34.0798 17.1226C34.3198 16.8293 34.5598 16.3826 34.7998 15.7826H35.6398C35.1464 17.2493 34.5731 18.2359 33.9198 18.7426C33.2798 19.2359 32.6131 19.4826 31.9198 19.4826ZM37.1988 19.4826C36.4388 19.4826 35.8055 19.2226 35.2988 18.7026C34.7922 18.1826 34.5388 17.3693 34.5388 16.2626C34.5388 15.2759 34.7322 14.2426 35.1188 13.1626C35.5188 12.0693 36.1055 11.1493 36.8788 10.4026C37.6655 9.64261 38.5988 9.26261 39.6788 9.26261C40.2255 9.26261 40.6322 9.35594 40.8988 9.54261C41.1655 9.72928 41.2988 9.97594 41.2988 10.2826V10.4226L41.5188 9.36261H44.3988L42.9588 16.1626C42.9055 16.3626 42.8788 16.5759 42.8788 16.8026C42.8788 17.3759 43.1522 17.6626 43.6988 17.6626C44.0722 17.6626 44.3922 17.4893 44.6588 17.1426C44.9388 16.7959 45.1588 16.3426 45.3188 15.7826H46.1588C45.6655 17.2226 45.0522 18.2026 44.3188 18.7226C43.5988 19.2293 42.8722 19.4826 42.1388 19.4826C41.5788 19.4826 41.1255 19.3293 40.7788 19.0226C40.4455 18.7026 40.2455 18.2426 40.1788 17.6426C39.7922 18.1893 39.3588 18.6359 38.8788 18.9826C38.4122 19.3159 37.8522 19.4826 37.1988 19.4826ZM38.4988 17.5426C38.8322 17.5426 39.1588 17.3893 39.4788 17.0826C39.8122 16.7626 40.0388 16.3293 40.1588 15.7826L41.1188 11.2626C41.1188 11.0893 41.0522 10.9226 40.9188 10.7626C40.7855 10.5893 40.5788 10.5026 40.2988 10.5026C39.7655 10.5026 39.2855 10.8159 38.8588 11.4426C38.4322 12.0559 38.0988 12.8026 37.8588 13.6826C37.6188 14.5493 37.4988 15.3159 37.4988 15.9826C37.4988 16.6493 37.5922 17.0759 37.7788 17.2626C37.9788 17.4493 38.2188 17.5426 38.4988 17.5426ZM48.1862 19.4826C47.1995 19.4826 46.4328 19.2293 45.8862 18.7226C45.3395 18.2026 45.0662 17.3959 45.0662 16.3026C45.0662 15.3826 45.2462 14.3693 45.6062 13.2626C45.9795 12.1559 46.5662 11.2026 47.3662 10.4026C48.1795 9.58928 49.2062 9.18261 50.4462 9.18261C51.2462 9.18261 51.8128 9.35594 52.1462 9.70261C52.4928 10.0493 52.6662 10.4893 52.6662 11.0226C52.6662 11.4893 52.5662 11.8493 52.3662 12.1026C52.1662 12.3559 51.9128 12.4826 51.6062 12.4826C51.3795 12.4826 51.1462 12.4026 50.9062 12.2426C51.0662 11.8026 51.1462 11.4093 51.1462 11.0626C51.1462 10.8093 51.0995 10.6093 51.0062 10.4626C50.9128 10.3159 50.7728 10.2426 50.5862 10.2426C50.1862 10.2426 49.7862 10.5693 49.3862 11.2226C48.9862 11.8759 48.6595 12.6693 48.4062 13.6026C48.1528 14.5359 48.0262 15.3759 48.0262 16.1226C48.0262 16.7759 48.1395 17.2226 48.3662 17.4626C48.5928 17.6893 48.9595 17.8026 49.4662 17.8026C50.1862 17.8026 50.7995 17.6359 51.3062 17.3026C51.8262 16.9693 52.3928 16.4626 53.0062 15.7826H53.6862C52.2062 18.2493 50.3728 19.4826 48.1862 19.4826ZM60.522 19.4826C59.6953 19.4826 59.0686 19.2893 58.642 18.9026C58.2153 18.5026 58.002 17.9359 58.002 17.2026C58.002 16.8826 58.042 16.5359 58.122 16.1626L58.282 15.3826C58.3353 15.1559 58.362 14.9093 58.362 14.6426C58.362 14.0026 58.122 13.6826 57.642 13.6826C57.4286 13.6826 57.202 13.7426 56.962 13.8626C56.7353 13.9826 56.4686 14.1693 56.162 14.4226L55.122 19.3626H52.242L55.142 5.76261L58.102 5.36261L56.602 12.4026L60.462 9.36261H62.442L58.442 12.1426C58.642 12.0893 58.862 12.0626 59.102 12.0626C59.822 12.0626 60.3686 12.2826 60.742 12.7226C61.1153 13.1626 61.302 13.7226 61.302 14.4026C61.302 14.6826 61.2753 14.9359 61.222 15.1626L61.002 16.1626C60.9353 16.4026 60.902 16.6159 60.902 16.8026C60.902 17.2959 61.162 17.5426 61.682 17.5426C62.082 17.5426 62.402 17.4026 62.642 17.1226C62.882 16.8293 63.122 16.3826 63.362 15.7826H64.202C63.3753 18.2493 62.1486 19.4826 60.522 19.4826ZM66.4735 24.3626C65.8468 24.3626 65.2935 24.1559 64.8135 23.7426C64.3468 23.3426 64.1135 22.8293 64.1135 22.2026C64.1135 21.6159 64.2602 21.1359 64.5535 20.7626C64.8468 20.3893 65.2268 20.0959 65.6935 19.8826C66.1602 19.6693 66.7868 19.4426 67.5735 19.2026L67.7735 18.3226C67.0935 19.0959 66.2802 19.4826 65.3335 19.4826C64.6935 19.4826 64.1735 19.2826 63.7735 18.8826C63.3868 18.4826 63.1935 17.8826 63.1935 17.0826C63.1935 16.7493 63.2468 16.3159 63.3535 15.7826L64.7135 9.36261H67.5935L66.1535 16.1626C66.1135 16.3226 66.0935 16.4893 66.0935 16.6626C66.0935 17.2493 66.2935 17.5426 66.6935 17.5426C67.0668 17.5426 67.3868 17.3893 67.6535 17.0826C67.9202 16.7626 68.1335 16.3293 68.2935 15.7826L69.6535 9.36261H72.5535L70.1135 20.9626C69.8468 22.2426 69.3735 23.1293 68.6935 23.6226C68.0268 24.1159 67.2868 24.3626 66.4735 24.3626ZM66.0135 22.5826C66.2535 22.5826 66.4802 22.4559 66.6935 22.2026C66.9068 21.9626 67.0735 21.5693 67.1935 21.0226L67.4335 19.8426C66.7268 20.0826 66.1802 20.3626 65.7935 20.6826C65.4068 21.0026 65.2135 21.4159 65.2135 21.9226C65.2135 22.0826 65.2935 22.2293 65.4535 22.3626C65.6135 22.5093 65.8002 22.5826 66.0135 22.5826ZM74.4727 8.78261C74.7527 8.48928 74.9727 8.21594 75.1327 7.96261C75.2927 7.70928 75.3727 7.50261 75.3727 7.34261C75.3727 7.24928 75.3394 7.16261 75.2727 7.08261C75.2194 7.00261 75.1327 6.91594 75.0127 6.82261C74.8261 6.67594 74.6794 6.52261 74.5727 6.36261C74.4661 6.20261 74.4127 5.98928 74.4127 5.72261C74.4127 5.30928 74.5394 4.97594 74.7927 4.72261C75.0461 4.45594 75.3661 4.32261 75.7527 4.32261C76.1661 4.32261 76.4994 4.45594 76.7527 4.72261C77.0194 4.97594 77.1527 5.30928 77.1527 5.72261C77.1527 6.24261 76.9327 6.81594 76.4927 7.44261C76.0661 8.05594 75.4927 8.60261 74.7727 9.08261L74.4727 8.78261ZM79.5984 19.4826C78.9584 19.4826 78.4184 19.3626 77.9784 19.1226C77.5384 18.8693 77.2117 18.5493 76.9984 18.1626C76.785 17.7626 76.6784 17.3493 76.6784 16.9226C76.6784 16.4826 76.785 16.1026 76.9984 15.7826C77.1984 15.4493 77.445 15.2093 77.7384 15.0626C78.2584 14.1293 78.7117 13.1893 79.0984 12.2426C79.485 11.2826 79.8517 10.2493 80.1984 9.14261L83.1584 8.74261C83.225 10.4493 83.3384 12.2959 83.4984 14.2826C83.565 15.0826 83.5984 15.6626 83.5984 16.0226C83.5984 16.8359 83.3917 17.5026 82.9784 18.0226C82.565 18.5426 82.0517 18.9159 81.4384 19.1426C80.8384 19.3693 80.225 19.4826 79.5984 19.4826ZM78.9584 17.9026C79.4517 17.9026 79.865 17.7559 80.1984 17.4626C80.5317 17.1693 80.6984 16.6959 80.6984 16.0426C80.6984 15.6426 80.6584 15.0826 80.5784 14.3626C80.445 12.8426 80.3584 11.8226 80.3184 11.3026C79.9984 12.3559 79.4584 13.6159 78.6984 15.0826C79.005 15.2426 79.1584 15.4759 79.1584 15.7826C79.1584 16.0359 79.0717 16.2626 78.8984 16.4626C78.7384 16.6626 78.5317 16.7626 78.2784 16.7626C77.9984 16.7626 77.8184 16.6759 77.7384 16.5026C77.7384 16.9826 77.8317 17.3359 78.0184 17.5626C78.2184 17.7893 78.5317 17.9026 78.9584 17.9026Z" fill="#A60321"/>
</svg>
